<?xml version="1.0" encoding="UTF-8" standalone="no"?>
<svg
   width="1024"
   height="1024"
   version="1.1"
   id="svg9"
   sodipodi:docname="logo.svg"
   inkscape:version="1.4.2 (ebf0e940d0, 2025-05-08)"
   xmlns:inkscape="http://www.inkscape.org/namespaces/inkscape"
   xmlns:sodipodi="http://sodipodi.sourceforge.net/DTD/sodipodi-0.dtd"
   xmlns="http://www.w3.org/2000/svg"
   xmlns:svg="http://www.w3.org/2000/svg">
  <defs
     id="defs9" />
  <sodipodi:namedview
     id="namedview9"
     pagecolor="#ffffff"
     bordercolor="#000000"
     borderopacity="0.25"
     inkscape:showpageshadow="2"
     inkscape:pageopacity="0.0"
     inkscape:pagecheckerboard="0"
     inkscape:deskcolor="#d1d1d1"
     inkscape:zoom="0.41845704"
     inkscape:cx="417.00816"
     inkscape:cy="860.30337"
     inkscape:window-width="1920"
     inkscape:window-height="999"
     inkscape:window-x="0"
     inkscape:window-y="0"
     inkscape:window-maximized="1"
     inkscape:current-layer="svg9"
     showgrid="false"
     showguides="true">
    <sodipodi:guide
       position="266.99435,148.40325"
       orientation="0.70710678,0.70710678"
       id="guide2"
       inkscape:locked="false"
       inkscape:label=""
       inkscape:color="rgb(0,134,229)" />
    <sodipodi:guide
       position="757.91655,876.61824"
       orientation="0.70710678,0.70710678"
       id="guide3"
       inkscape:label=""
       inkscape:locked="false"
       inkscape:color="rgb(0,134,229)" />
  </sodipodi:namedview>
  <circle
     style="fill:#be7d69;fill-opacity:1;stroke-width:1.57794"
     id="path1"
     cx="512"
     cy="512"
     r="512" />
  <path
     id="path3"
     style="fill:#914631;fill-opacity:1"
     d="M 757.91602 147.38086 L 585.7793 321.88086 L 395.7832 739.54297 L 266.99414 875.59766 L 403.8418 1012.4453 A 512 512 0 0 0 403.84375 1012.4453 A 512 512 0 0 0 512 1024 A 512 512 0 0 0 1024 512 A 512 512 0 0 0 1011.9043 401.37109 A 512 512 0 0 0 1011.9043 401.36914 L 757.91602 147.38086 z " />
  <path
     id="circle2"
     style="fill:#ffffff;fill-opacity:1;stroke-width:1.57794"
     d="M 512 0 A 512 512 0 0 0 0 512 A 512 512 0 0 0 512 1024 A 512 512 0 0 0 1024 512 A 512 512 0 0 0 512 0 z M 512 12 A 500 500 0 0 1 1012 512 A 500 500 0 0 1 512 1012 A 500 500 0 0 1 12 512 A 500 500 0 0 1 512 12 z " />
  <path
     id="path23"
     style="fill:#914631;fill-opacity:1;stroke-width:1.60465"
     d="m 340.79889,638.34333 c -7.14549,-0.0273 -13.71322,0.67539 -19.44542,6.54238 -9.08551,9.29732 -7.99459,26.84636 1.34766,35.54355 6.37366,5.93558 12.2388,5.38925 20.11922,6.04876 0,3.73723 0.0947,7.49535 0,11.23096 -18.94927,10.06435 -37.48053,21.01429 -55.92755,31.966 -26.96063,16.00635 -31.77449,14.83699 -31.5163,49.45884 l 0.0112,55.73639 c -0.0217,21.9981 2.75157,42.41854 28.35082,50.08883 10.61634,3.17881 24.04129,1.69724 35.14866,1.68922 l 37.42717,0.0249 h 61.2837 61.2837 l 37.42709,-0.0249 c 11.10736,0.008 24.53232,1.48959 35.14866,-1.68922 25.59925,-7.67021 28.37272,-28.09073 28.35089,-50.08883 l 0.0112,-55.73639 c 0.25818,-34.62185 -4.5556,-33.45249 -31.51622,-49.45884 -18.44702,-10.95171 -36.97828,-21.90165 -55.92763,-31.966 -0.0947,-3.73561 0,-7.49373 0,-11.23096 7.8805,-0.65951 13.74556,-0.11318 20.11922,-6.04876 9.34225,-8.69718 10.43317,-26.24623 1.34766,-35.54355 -5.7322,-5.86699 -12.29994,-6.56968 -19.44535,-6.54238 -2.38185,0.009 -4.82822,0.0993 -7.32906,0.10656 l -25.0945,0.0408 c -14.78666,0 -29.58078,0.0673 -44.37538,0.11125 -14.7946,-0.044 -29.58872,-0.11125 -44.37538,-0.11125 l -25.09458,-0.0408 c -2.50084,-0.007 -4.94721,-0.0975 -7.32898,-0.10656 z" />
  <path
     fill="#be7d69"
     d="m 361.02089,773.95238 c 25.78025,-2.76 60.32348,8.91702 84.16852,17.79873 59.70513,19.6887 83.89084,22.39242 123.44706,11.43472 0.35142,4.72087 0.0385,9.65194 0.016,14.39207 l 0.0161,24.79821 c -0.0161,26.15092 -12.50983,34.7647 -37.37543,34.52239 l -215.85544,0.0209 c -44.64913,0.0145 -50.38221,-5.48792 -50.37387,-47.14936 l 0.0257,-28.67663 c 3.86543,-1.1024 7.93225,-1.40567 11.89588,-2.02186 29.18692,-4.53473 53.94661,-23.07321 84.03534,-25.11913 z"
     id="path27"
     style="stroke-width:1.60465;fill:#808080"
     sodipodi:nodetypes="scccccccccss" />
  <path
     id="path20-3"
     style="fill:#ffffff;fill-opacity:1;stroke-width:1.60465"
     d="m 351.33597,687.63887 c -0.008,21.53756 1.052,17.01729 -17.29071,27.61277 l -42.1235,24.36429 c -12.80026,7.43433 -26.4952,10.68228 -26.80265,27.94186 -0.14024,7.88844 0.0305,15.80512 0.0297,23.69517 31.79992,-3.08413 54.70168,-21.23637 83.3382,-25.11961 35.08078,-5.8024 67.94603,5.09951 100.2701,17.51947 27.25156,11.1016 58.59054,15.14029 67.00314,16.52217 8.09713,1.33005 18.16588,3.94391 52.29992,-6.17284 3.71396,-36.21059 1.68408,-35.26341 -3.45199,-41.83572 -40.58713,-30.48916 -49.41308,-31.33673 -79.15513,-48.97275 l -0.86257,-15.21587 -84.83783,-0.33894 z"
     sodipodi:nodetypes="cccccccscccccc" />
  <path
     id="path22-2"
     style="fill:#ffffff;fill-opacity:1;stroke-width:1.60465"
     d="m 337.5892,647.97131 c -13.09231,1.87584 -15.49968,18.53061 -6.00178,25.26692 5.58313,3.95861 15.56692,2.68319 22.40552,2.5198 h 1.62976 l 62.38216,-0.008 62.38223,0.008 h 1.62816 c 6.8386,0.16339 16.82391,1.43881 22.40704,-2.5198 9.4979,-6.73631 7.09053,-23.39108 -6.00178,-25.26692 H 478.57874 357.43106 Z" />
  <path
     fill="#914631"
     d="m 725.59094,137.21581 c 21.1685,-2.14991 42.71088,11.92894 43.03823,34.84714 0.23588,16.41201 -10.30344,57.59606 -17.03653,73.26383 -9.56049,22.24842 -21.88738,21.71087 -41.74328,29.6988 l -0.48942,0.20058 c 6.0784,-0.68198 26.36756,-4.70964 30.62629,0.85848 2.87713,13.48385 -56.80449,148.58706 -69.15545,157.32757 -17.63988,12.48415 -37.45727,10.64362 -52.95494,18.87546 7.7697,-1.12647 32.66418,-1.12647 37.17324,1.19706 5.3547,2.75999 -3.54627,16.55033 -5.21029,19.6842 -40.83183,76.81924 -68.57136,101.18259 -156.41933,122.7025 -10.08521,2.47116 -20.37581,3.90571 -30.42571,6.41859 -3.27508,8.40193 -55.44721,130.82717 -59.07692,139.08307 -6.30392,13.0033 -11.71754,18.92715 -19.53136,16.02223 -12.25996,-4.55786 -7.06399,-9.61404 -2.05779,-30.35019 54.88665,-132.43849 -8.21725,17.63211 40.99008,-100.23913 9.1,-21.73673 4.95075,-39.31221 -8.80038,-69.8681 -14.48675,-44.90283 -18.4069,-88.23951 -1.1746,-133.64459 16.28074,-42.89541 18.26409,-16.9226 35.77399,3.6281 -6.87751,-17.28525 -11.15871,-29.8047 -14.05831,-48.87432 -1.32865,-8.74211 3.38902,-15.41744 7.37656,-22.84375 42.87937,-79.83437 106.0543,-134.30827 186.05555,-176.83605 22.72982,-12.08331 75.22904,-37.81976 97.10037,-41.15148 z"
     id="path9"
     style="stroke-width:1.60465;fill:#4d4d4d"
     sodipodi:nodetypes="cccccccccccccsccccccccc" />
  <path
     fill="#a8b858"
     d="m 428.11195,414.35222 c 3.06487,5.01773 6.71544,9.66799 10.13174,14.44823 l 17.87415,25.0357 c 4.55238,6.41217 12.98641,25.28281 20.3405,18.90755 2.90441,-2.51769 0.14602,-6.45549 -1.30137,-9.00367 -12.54191,-22.07031 -23.49363,-52.71745 -28.32843,-77.53492 -3.5575,-18.26248 0.68037,-20.32926 10.22963,-36.95661 51.0085,-88.81237 128.82904,-141.16749 219.68252,-183.01748 19.61359,-9.03512 59.28848,-32.10448 76.78394,-8.61951 10.68695,14.34554 -0.9323,51.37323 -5.36754,67.13568 -3.28632,11.68022 -6.01101,24.55911 -17.11998,31.23765 -11.3272,6.81012 -36.52817,14.40652 -49.92697,18.29458 -2.33957,0.68037 -29.15322,4.86849 -21.53114,12.78582 4.74814,4.93429 20.65019,0.66593 26.52159,0.0241 13.95401,-1.52602 28.07008,-2.60595 42.08025,-3.48048 -3.22855,11.69787 -8.95874,26.98053 -14.00696,38.02531 -9.14809,26.61146 -23.98304,58.68673 -36.9518,84.12199 -4.93107,9.6712 -8.40513,17.6816 -18.57538,22.67847 -21.12838,10.38206 -45.76292,13.86575 -69.04794,15.91007 -4.22343,0.37067 -21.13962,-0.82158 -17.02851,7.598 3.09536,6.34156 64.07193,10.03546 71.56563,9.83648 -36.26662,78.56349 -70.11824,103.61042 -154.9559,124.59599 -6.93368,1.71536 -14.07596,3.69229 -21.15726,4.56682 6.6673,-19.08887 15.34523,-37.42517 23.21442,-56.02142 25.01964,-59.11999 55.79837,-125.2908 89.56815,-179.67066 2.22565,-3.58157 7.21129,-13.54482 10.23444,-15.77047 20.95829,-39.17263 69.4475,-90.17792 100.66108,-120.48424 3.2109,-3.11702 6.839,-6.23469 9.62788,-9.73747 2.71987,-3.41774 -0.23749,-8.64359 -4.64064,-7.55949 -11.44113,2.81679 -91.62371,95.87265 -110.90835,120.18304 -55.48547,69.95296 -99.22813,154.54511 -134.91066,236.59871 -4.05815,9.33423 -7.65256,19.05037 -12.4007,28.04922 -25.47216,-47.24239 -39.18226,-123.23845 -10.35639,-172.17696 z"
     id="path10"
     style="fill:#ffffff;fill-opacity:1;stroke-width:1.60465" />
  <path
     fill="#be7d69"
     d="m 552.02115,385.199 c 0.50546,3.51739 -3.86399,9.32139 -5.50876,12.33813 -35.96654,65.99429 -66.1018,134.42605 -94.39333,203.95057 l -56.33593,138.05576 c -1.94964,4.88454 -2.85466,10.75915 -9.20425,8.29923 -4.82196,-6.19875 5.48147,-24.15314 8.35379,-31.33393 29.05534,-72.60865 60.21757,-148.08159 94.66452,-217.87248 12.9174,-26.16858 25.89899,-52.0419 40.84948,-77.16745 7.1824,-12.07016 15.36449,-23.64929 21.57448,-36.26983 z"
     id="path15"
     style="stroke-width:1.60465;fill:#333333" />
  <path
     id="path23-1"
     style="fill:#914631;fill-opacity:1;stroke-width:1.60465"
     d="m 340.79849,638.34343 c -7.14549,-0.0273 -13.71314,0.6754 -19.44534,6.54239 -9.08551,9.29732 -7.99459,26.84635 1.34766,35.54354 6.37366,5.93558 183.41968,5.93558 189.79334,0 9.34225,-8.69718 10.43309,-26.24622 1.34758,-35.54354 -5.7322,-5.86699 -12.29994,-6.56969 -19.44535,-6.54239 -2.38186,0.009 -4.82814,0.0994 -7.32898,0.10657 l -25.09459,0.0408 c -14.78665,0 -29.58077,0.0673 -44.37537,0.11125 -14.7946,-0.044 -29.58872,-0.11125 -44.37538,-0.11125 l -25.0945,-0.0408 c -2.50084,-0.007 -4.94729,-0.0975 -7.32907,-0.10657 z m -3.20929,9.62788 h 19.84186 121.14768 19.84177 c 13.09231,1.87583 15.49969,18.53061 6.00178,25.26692 -5.58312,3.95861 -15.56844,2.68318 -22.40704,2.5198 h -1.62816 l -62.38223,-0.008 -62.38216,0.008 h -1.62976 c -6.8386,0.16338 -16.82239,1.43881 -22.40552,-2.5198 -9.4979,-6.73631 -7.09053,-23.39109 6.00178,-25.26692 z" />
</svg>
