<?xml version="1.0" encoding="UTF-8" standalone="no"?>
<svg
   width="1024"
   height="1024"
   version="1.1"
   id="svg9"
   sodipodi:docname="logo.svg"
   inkscape:version="1.4.2 (ebf0e940d0, 2025-05-08)"
   xmlns:inkscape="http://www.inkscape.org/namespaces/inkscape"
   xmlns:sodipodi="http://sodipodi.sourceforge.net/DTD/sodipodi-0.dtd"
   xmlns="http://www.w3.org/2000/svg"
   xmlns:svg="http://www.w3.org/2000/svg">
  <defs
     id="defs9" />
  <sodipodi:namedview
     id="namedview9"
     pagecolor="#ffffff"
     bordercolor="#000000"
     borderopacity="0.25"
     inkscape:showpageshadow="2"
     inkscape:pageopacity="0.0"
     inkscape:pagecheckerboard="0"
     inkscape:deskcolor="#d1d1d1"
     inkscape:zoom="0.20922852"
     inkscape:cx="-210.29638"
     inkscape:cy="1018.0256"
     inkscape:window-width="1900"
     inkscape:window-height="979"
     inkscape:window-x="20"
     inkscape:window-y="20"
     inkscape:window-maximized="0"
     inkscape:current-layer="svg9"
     showgrid="false"
     showguides="true">
    <sodipodi:guide
       position="266.99435,148.40325"
       orientation="0.70710678,0.70710678"
       id="guide2"
       inkscape:locked="false"
       inkscape:label=""
       inkscape:color="rgb(0,134,229)" />
    <sodipodi:guide
       position="757.91655,876.61824"
       orientation="0.70710678,0.70710678"
       id="guide3"
       inkscape:label=""
       inkscape:locked="false"
       inkscape:color="rgb(0,134,229)" />
  </sodipodi:namedview>
  <circle
     style="fill:#be7d69;fill-opacity:1;stroke-width:1.57794"
     id="path1"
     cx="512"
     cy="512"
     r="512" />
  <path
     id="path3"
     style="fill:#914631;fill-opacity:1"
     d="M 757.91602 147.38086 L 585.7793 321.88086 L 395.7832 739.54297 L 266.99414 875.59766 L 403.8418 1012.4453 A 512 512 0 0 0 403.84375 1012.4453 A 512 512 0 0 0 512 1024 A 512 512 0 0 0 1024 512 A 512 512 0 0 0 1011.9043 401.37109 A 512 512 0 0 0 1011.9043 401.36914 L 757.91602 147.38086 z " />
  <path
     id="circle2"
     style="fill:#ffffff;fill-opacity:1;stroke-width:1.57794"
     d="M 512 0 A 512 512 0 0 0 0 512 A 512 512 0 0 0 512 1024 A 512 512 0 0 0 1024 512 A 512 512 0 0 0 512 0 z M 512 12 A 500 500 0 0 1 1012 512 A 500 500 0 0 1 512 1012 A 500 500 0 0 1 12 512 A 500 500 0 0 1 512 12 z " />
  <g
     id="g2"
     transform="matrix(0.80232325,0,0,0.80232325,101.21049,101.2105)">
    <path
       id="path23"
       style="fill:#914631;fill-opacity:1;stroke-width:2"
       d="m 298.6183,669.47185 c -8.906,-0.034 -17.0919,0.84179 -24.2364,8.15429 -11.324,11.588 -9.9643,33.46078 1.6797,44.30079 7.944,7.39799 15.2542,6.71706 25.0762,7.53906 0,4.658 0.118,9.34205 0,13.99805 -23.618,12.544 -46.715,26.19179 -69.707,39.84179 -33.6032,19.95 -39.6031,18.49253 -39.2813,61.64453 l 0.014,69.46875 c -0.027,27.418 3.4295,52.86964 35.3359,62.42974 13.232,3.962 29.9646,2.1154 43.8086,2.1054 l 46.6485,0.031 h 76.3828 76.3828 l 46.6484,-0.031 c 13.844,0.01 30.5766,1.8566 43.8086,-2.1054 31.9064,-9.56 35.3632,-35.01174 35.336,-62.42974 l 0.014,-69.46875 c 0.3218,-43.152 -5.678,-41.69453 -39.2812,-61.64453 -22.992,-13.65 -46.089,-27.29779 -69.7071,-39.84179 -0.118,-4.656 0,-9.34005 0,-13.99805 9.8221,-0.822 17.1322,-0.14107 25.0762,-7.53906 11.644,-10.84 13.0037,-32.71279 1.6797,-44.30079 -7.1445,-7.3125 -15.3304,-8.18832 -24.2363,-8.15429 -2.9687,0.0113 -6.0178,0.12381 -9.1348,0.13281 l -31.2773,0.0508 c -18.4298,0 -36.8689,0.0839 -55.3086,0.13867 -18.4397,-0.0548 -36.8788,-0.13867 -55.3086,-0.13867 l -31.2774,-0.0508 c -3.117,-0.009 -6.1661,-0.12147 -9.1347,-0.13281 z" />
    <path
       fill="#be7d69"
       d="m 323.8226,838.49231 c 32.132,-3.44 75.186,11.114 104.906,22.184 74.4153,24.5396 104.5599,27.90947 153.862,14.252 0.438,5.884 0.048,12.03 0.02,17.938 l 0.02,30.908 c -0.02,32.594 -15.592,43.33004 -46.584,43.02804 l -269.038,0.026 c -55.6498,0.018 -62.7954,-6.84004 -62.785,-58.76604 l 0.032,-35.742 c 4.8178,-1.374 9.8866,-1.752 14.8268,-2.52 36.378,-5.652 67.238,-28.758 104.74,-31.308 z"
       id="path27"
       style="stroke-width:2"
       sodipodi:nodetypes="scccccccccss" />
    <path
       id="path20-3"
       style="fill:#e7cfc3;fill-opacity:1;stroke-width:2"
       d="m 311.7515,730.91284 c -0.01,26.844 1.3112,21.21002 -21.5508,34.41602 l -52.5019,30.36718 c -15.954,9.266 -33.0231,13.31418 -33.4063,34.82618 -0.1748,9.832 0.038,19.6992 0.037,29.5332 39.6348,-3.844 68.1791,-26.46859 103.8711,-31.30859 43.724,-7.232 84.6866,6.35593 124.9747,21.83593 33.9658,13.83681 73.0261,18.87056 83.5114,20.5929 10.0921,1.65775 22.6416,4.91562 65.1856,-7.6937 4.629,-45.13218 2.099,-43.95163 -4.3025,-52.14323 -50.587,-38.00109 -61.5875,-39.05748 -98.6574,-61.03867 l -1.0751,-18.96477 -105.7402,-0.42245 z"
       sodipodi:nodetypes="cccccccscccccc" />
    <path
       id="path22-2"
       style="fill:#e7cfc3;fill-opacity:1;stroke-width:2"
       d="m 294.6178,681.47198 c -16.318,2.338 -19.3185,23.09619 -7.4805,31.49219 6.9587,4.93394 19.4023,3.34427 27.9258,3.14063 h 2.0313 l 77.7519,-0.01 77.752,0.01 h 2.0293 c 8.5235,0.20364 20.969,1.79331 27.9277,-3.14063 11.838,-8.396 8.8375,-29.15419 -7.4805,-31.49219 H 470.3444 319.3483 Z" />
    <path
       fill="#914631"
       d="m 778.21558,44.87631 c 26.384,-2.6796 53.234,14.868 53.642,43.4328 0.294,20.4556 -12.842,71.7866 -21.234,91.3146 -11.916,27.73 -27.28,27.06 -52.028,37.016 l -0.61,0.25 c 7.576,-0.85 32.864,-5.87 38.172,1.07 3.586,16.806 -70.8,185.196 -86.194,196.09 -21.986,15.56 -46.686,13.266 -66.002,23.526 9.684,-1.404 40.712,-1.404 46.332,1.492 6.674,3.44 -4.42,20.628 -6.494,24.534 -50.892,95.746 -85.466,126.112 -194.958,152.934 -12.57,3.08 -25.396,4.868 -37.922,8 -4.082,10.472 -69.10832,163.06042 -73.63232,173.35042 -7.85708,16.20705 -14.60451,23.59043 -24.34351,19.96979 -15.28057,-5.68083 -8.80441,-11.98275 -2.56479,-37.82788 68.40965,-165.06874 -10.24182,21.97631 51.08924,-124.93609 11.34206,-27.09224 6.17052,-48.99797 -10.96862,-87.08224 -18.056,-55.966 -22.942,-109.98 -1.464,-166.572 20.292,-53.464 22.764,-21.092 44.588,4.522 -8.572,-21.544 -13.908,-37.148 -17.522,-60.916 -1.656,-10.896 4.224,-19.216 9.194,-28.472 53.444,-99.504 132.184,-167.3992 231.896,-220.405 28.33,-15.0604 93.764,-47.1378 121.024,-51.2904 z"
       id="path9"
       style="stroke-width:2"
       sodipodi:nodetypes="cccccccccccccsccccccccc" />
    <path
       fill="#a8b858"
       d="m 407.44358,390.29371 c 3.82,6.254 8.37,12.05 12.628,18.008 l 22.278,31.204 c 5.674,7.992 16.186,31.512 25.352,23.566 3.62,-3.138 0.182,-8.046 -1.622,-11.222 -15.632,-27.508 -29.282,-65.706 -35.308,-96.638 -4.434,-22.762 0.848,-25.338 12.75,-46.062 63.576,-110.694 160.57,-175.9484 273.808,-228.1094 24.446,-11.2612 73.896,-40.0144 95.702,-10.7432 13.32,17.88 -1.162,64.0306 -6.69,83.6766 -4.096,14.558 -7.492,30.61 -21.338,38.934 -14.118,8.488 -45.528,17.956 -62.228,22.802 -2.916,0.848 -36.336,6.068 -26.836,15.936 5.918,6.15 25.738,0.83 33.056,0.03 17.392,-1.902 34.986,-3.248 52.448,-4.338 -4.024,14.58 -11.166,33.628 -17.458,47.394 -11.402,33.168 -29.892,73.146 -46.056,104.848 -6.146,12.054 -10.476,22.038 -23.152,28.266 -26.334,12.94 -57.038,17.282 -86.06,19.83 -5.264,0.462 -26.348,-1.024 -21.224,9.47 3.858,7.904 79.858,12.508 89.198,12.26 -45.202,97.92 -87.394,129.138 -193.134,155.294 -8.642,2.138 -17.544,4.602 -26.37,5.692 8.31,-23.792 19.126,-46.646 28.934,-69.824 31.184,-73.686 69.546,-156.16 111.636,-223.938 2.774,-4.464 8.988,-16.882 12.756,-19.656 26.122,-48.824 86.558,-112.396 125.462,-150.1692 4.002,-3.885 8.524,-7.7708 12,-12.1366 3.39,-4.2598 -0.296,-10.7732 -5.784,-9.422 -14.26,3.5108 -114.198,119.4938 -138.234,149.7938 -69.156,87.188 -123.676,192.622 -168.15,294.892 -5.058,11.634 -9.538,23.744 -15.456,34.96 -31.748,-58.882 -48.836,-153.602 -12.908,-214.598 z"
       id="path10"
       style="fill:#e7cfc3;fill-opacity:1;stroke-width:2" />
    <path
       fill="#be7d69"
       d="m 561.88158,353.95771 c 0.63,4.384 -4.816,11.618 -6.866,15.378 -44.828,82.254 -82.388,167.546 -117.65,254.2 l -70.216,172.07 c -2.43,6.088 -3.558,13.41 -11.472,10.344 -6.01,-7.726 6.832,-30.104 10.412,-39.054 36.214,-90.498 75.054,-184.566 117.988,-271.552 16.1,-32.616 32.28,-64.864 50.914,-96.18 8.952,-15.044 19.15,-29.476 26.89,-45.206 z"
       id="path15"
       style="stroke-width:2" />
    <path
       id="path23-1"
       style="fill:#914631;fill-opacity:1;stroke-width:2"
       d="m 298.6182,669.47184 c -8.906,-0.034 -17.0918,0.8418 -24.2363,8.1543 -11.324,11.588 -9.9643,33.46077 1.6797,44.30078 7.944,7.39799 228.6107,7.39799 236.5547,0 11.644,-10.84 13.0036,-32.71278 1.6796,-44.30078 -7.1445,-7.3125 -15.3304,-8.18833 -24.2363,-8.1543 -2.9687,0.0113 -6.0177,0.12382 -9.1347,0.13282 l -31.2774,0.0508 c -18.4298,0 -36.8689,0.0839 -55.3086,0.13867 -18.4397,-0.0548 -36.8788,-0.13867 -55.3086,-0.13867 l -31.2773,-0.0508 c -3.117,-0.009 -6.1662,-0.12148 -9.1348,-0.13282 z m -4,12 h 24.7305 150.9961 24.7304 c 16.318,2.338 19.3185,23.09619 7.4805,31.49219 -6.9587,4.93394 -19.4042,3.34427 -27.9277,3.14063 h -2.0293 l -77.752,-0.01 -77.7519,0.01 h -2.0313 c -8.5235,0.20364 -20.9671,1.79331 -27.9258,-3.14063 -11.838,-8.396 -8.8375,-29.15419 7.4805,-31.49219 z" />
  </g>
</svg>
